<?xml version="1.0" encoding="UTF-8" standalone="no"?><!DOCTYPE svg PUBLIC "-//W3C//DTD SVG 1.1//EN" "http://www.w3.org/Graphics/SVG/1.1/DTD/svg11.dtd"><!-- Generated by graphviz version 2.40.1 (20161225.0304)
 --><!-- Title: G Pages: 1 --><svg xmlns="http://www.w3.org/2000/svg" xmlns:xlink="http://www.w3.org/1999/xlink" width="305pt" height="263pt" viewBox="0.00 0.00 304.67 263.48">
<g id="graph0" class="graph" transform="scale(1 1) rotate(0) translate(4 259.4801)">
<title>G</title>
<polygon fill="#ffffff" stroke="transparent" points="-4,4 -4,-259.4801 300.6697,-259.4801 300.6697,4 -4,4"/>
<!-- interger -->
<g id="node1" class="node">
<title>interger</title>
<ellipse fill="none" stroke="#000000" cx="159.9297" cy="-18" rx="41.1277" ry="18"/>
<text text-anchor="middle" x="159.9297" y="-13.8" font-family="Times,serif" font-size="14.00" fill="#000000">interger</text>
</g>
<!-- list -->
<g id="node2" class="node">
<title>list</title>
<ellipse fill="none" stroke="#000000" cx="269.6697" cy="-127.74" rx="27" ry="18"/>
<text text-anchor="middle" x="269.6697" y="-123.54" font-family="Times,serif" font-size="14.00" fill="#000000">list</text>
</g>
<!-- interger&#45;&gt;list -->
<g id="edge1" class="edge">
<title>interger-&gt;list</title>
<path fill="none" stroke="#000000" d="M170.9307,-35.6921C187.569,-55.6412 219.2253,-87.7287 242.2798,-108.3346"/>
<polygon fill="#000000" stroke="#000000" points="240.2016,-111.1665 250.037,-115.1057 244.8048,-105.8929 240.2016,-111.1665"/>
</g>
<!-- string -->
<g id="node3" class="node">
<title>string</title>
<ellipse fill="none" stroke="#000000" cx="159.9297" cy="-237.4801" rx="33.0624" ry="18"/>
<text text-anchor="middle" x="159.9297" y="-233.2801" font-family="Times,serif" font-size="14.00" fill="#000000">string</text>
</g>
<!-- interger&#45;&gt;string -->
<g id="edge12" class="edge">
<title>interger-&gt;string</title>
<path fill="none" stroke="#000000" d="M156.0178,-35.961C152.5128,-74.1577 152.2542,-163.692 155.2421,-209.4633"/>
<polygon fill="#000000" stroke="#000000" points="151.7636,-209.878 156.0233,-219.5787 158.7428,-209.3389 151.7636,-209.878"/>
</g>
<!-- dictionary -->
<g id="node4" class="node">
<title>dictionary</title>
<ellipse fill="none" stroke="#000000" cx="50.1896" cy="-127.74" rx="50.38" ry="18"/>
<text text-anchor="middle" x="50.1896" y="-123.54" font-family="Times,serif" font-size="14.00" fill="#000000">dictionary</text>
</g>
<!-- interger&#45;&gt;dictionary -->
<g id="edge5" class="edge">
<title>interger-&gt;dictionary</title>
<path fill="none" stroke="#000000" d="M137.358,-33.1583C116.7638,-51.0367 86.8962,-80.7824 67.9465,-102.204"/>
<polygon fill="#000000" stroke="#000000" points="65.136,-100.1038 61.2605,-109.9644 70.4393,-104.6728 65.136,-100.1038"/>
</g>
<!-- list&#45;&gt;interger -->
<g id="edge8" class="edge">
<title>list-&gt;interger</title>
<path fill="none" stroke="#000000" d="M259.4762,-111.021C243.7546,-91.9819 213.4129,-61.0556 190.2869,-40.0777"/>
<polygon fill="#000000" stroke="#000000" points="192.5506,-37.407 182.7524,-33.3764 187.8985,-42.6376 192.5506,-37.407"/>
</g>
<!-- list&#45;&gt;string -->
<g id="edge2" class="edge">
<title>list-&gt;string</title>
<path fill="none" stroke="#000000" d="M249.9732,-140.4286C229.1851,-158.0849 196.961,-190.0756 177.1505,-212.551"/>
<polygon fill="#000000" stroke="#000000" points="174.3098,-210.487 170.4577,-220.3567 179.6239,-215.0434 174.3098,-210.487"/>
</g>
<!-- list&#45;&gt;dictionary -->
<g id="edge10" class="edge">
<title>list-&gt;dictionary</title>
<path fill="none" stroke="#000000" d="M243.1953,-123.1555C209.9465,-120.8815 151.9594,-120.3985 108.2008,-121.7064"/>
<polygon fill="#000000" stroke="#000000" points="107.8458,-118.2164 97.971,-122.0555 108.0846,-125.2123 107.8458,-118.2164"/>
</g>
<!-- string&#45;&gt;interger -->
<g id="edge11" class="edge">
<title>string-&gt;interger</title>
<path fill="none" stroke="#000000" d="M163.8415,-219.5191C167.3379,-181.4172 167.6038,-92.2321 164.6394,-46.3584"/>
<polygon fill="#000000" stroke="#000000" points="168.1157,-45.9135 163.8641,-36.2092 161.136,-46.4467 168.1157,-45.9135"/>
</g>
<!-- string&#45;&gt;list -->
<g id="edge7" class="edge">
<title>string-&gt;list</title>
<path fill="none" stroke="#000000" d="M181.178,-223.4652C202.1835,-205.4029 233.7063,-174.0138 252.9862,-152.0583"/>
<polygon fill="#000000" stroke="#000000" points="255.6609,-154.3159 259.4933,-144.4384 250.3377,-149.7701 255.6609,-154.3159"/>
</g>
<!-- string&#45;&gt;dictionary -->
<g id="edge3" class="edge">
<title>string-&gt;dictionary</title>
<path fill="none" stroke="#000000" d="M149.3354,-220.277C133.705,-201.444 104.2399,-171.3954 81.4258,-150.6167"/>
<polygon fill="#000000" stroke="#000000" points="83.457,-147.7381 73.6672,-143.6872 78.7941,-152.959 83.457,-147.7381"/>
</g>
<!-- dictionary&#45;&gt;interger -->
<g id="edge4" class="edge">
<title>dictionary-&gt;interger</title>
<path fill="none" stroke="#000000" d="M73.8387,-111.6429C94.526,-93.5538 123.9489,-64.19 142.552,-43.1069"/>
<polygon fill="#000000" stroke="#000000" points="145.249,-45.3385 149.1113,-35.4728 139.9396,-40.7767 145.249,-45.3385"/>
</g>
<!-- dictionary&#45;&gt;list -->
<g id="edge9" class="edge">
<title>dictionary-&gt;list</title>
<path fill="none" stroke="#000000" d="M98.0842,-133.4289C138.7234,-134.9969 196.1635,-134.8272 233.166,-132.9199"/>
<polygon fill="#000000" stroke="#000000" points="233.7167,-136.3933 243.4906,-132.3042 233.3,-129.4057 233.7167,-136.3933"/>
</g>
<!-- dictionary&#45;&gt;string -->
<g id="edge6" class="edge">
<title>dictionary-&gt;string</title>
<path fill="none" stroke="#000000" d="M61.1907,-145.4321C77.4509,-164.9279 108.0541,-196.0164 130.9548,-216.6522"/>
<polygon fill="#000000" stroke="#000000" points="128.8822,-219.4909 138.6977,-223.4792 133.5117,-214.2404 128.8822,-219.4909"/>
</g>
</g>
</svg>